<svg version="1.1" id="Layer_1" xmlns="http://www.w3.org/2000/svg" xmlns:xlink="http://www.w3.org/1999/xlink" x="0px" y="0px"
	 width="100%" viewBox="0 0 992 992" enable-background="new 0 0 992 992" xml:space="preserve">
<path fill="#000000" opacity="1.000000" stroke="none" 
	d="
M721.442017,475.416016 
	C648.026489,562.490051 574.852234,649.301025 501.017883,736.895020 
	C425.748505,647.608337 350.985168,558.921997 276.088531,470.077484 
	C278.307831,467.973846 280.567444,468.704437 282.573212,468.702026 
	C323.061188,468.653168 363.549194,468.664032 404.037201,468.659149 
	C412.449799,468.658142 412.642120,468.503357 412.643829,459.966125 
	C412.659271,383.322144 412.646393,306.678192 412.666992,230.034225 
	C412.673431,206.111465 430.648346,187.908142 454.604187,187.812576 
	C485.427856,187.689621 516.252625,187.740143 547.076538,187.831711 
	C571.268860,187.903564 589.343140,206.138138 589.345764,230.315201 
	C589.354126,307.292419 589.348145,384.269653 589.350098,461.246857 
	C589.350281,468.646515 589.358032,468.659210 596.716187,468.659851 
	C637.537415,468.663300 678.358704,468.649475 719.179871,468.690125 
	C721.247559,468.692169 723.460571,468.092682 725.498474,469.469849 
	C725.191101,472.083649 723.016052,473.343292 721.442017,475.416016 
z"/>
<path fill="#000000" opacity="1.000000" stroke="none" 
	d="
M293.859680,777.953247 
	C296.964355,778.204712 299.616974,778.586670 302.269653,778.587219 
	C434.596954,778.614685 566.924255,778.624451 699.251587,778.596924 
	C730.815186,778.590393 754.915588,760.526367 761.979736,731.671997 
	C763.046143,727.316162 763.691833,722.893188 763.683533,718.355225 
	C763.626648,687.190063 763.635315,656.024780 763.675110,624.859497 
	C763.684143,617.760681 766.806702,612.314575 773.119080,608.991516 
	C779.437134,605.665405 785.687866,606.281494 791.567505,610.181335 
	C796.665527,613.562744 799.257019,618.539734 799.271423,624.556396 
	C799.350098,657.387878 800.339661,690.261475 799.032227,723.041443 
	C797.179077,769.505676 762.390015,804.805481 721.103455,812.322632 
	C713.884094,813.637085 706.608337,814.213623 699.256531,814.211426 
	C566.595886,814.171997 433.935272,814.177979 301.274628,814.168701 
	C252.012512,814.165222 213.254257,782.194519 204.070343,733.895569 
	C203.296585,729.826355 202.800476,725.637268 202.785263,721.501587 
	C202.667465,689.503479 202.623428,657.504578 202.720856,625.506470 
	C202.763885,611.373291 216.197083,602.773743 228.471756,608.905273 
	C235.225906,612.279114 238.352829,617.987549 238.348129,625.520203 
	C238.328964,656.185486 238.332413,686.850708 238.353622,717.515991 
	C238.373901,746.827698 258.768921,771.696472 287.444885,777.351685 
	C289.393127,777.735901 291.418274,777.730103 293.859680,777.953247 
z"/>
</svg>