<svg version="1.1" id="Layer_1" xmlns="http://www.w3.org/2000/svg" xmlns:xlink="http://www.w3.org/1999/xlink" x="0px" y="0px"
	 width="100%" viewBox="0 0 864 640" enable-background="new 0 0 864 640" xml:space="preserve">
<path fill="#000000" opacity="1.000000" stroke="none" 
	d="
M414.894958,527.960571 
	C400.704346,535.400574 387.135071,543.325317 372.898987,549.779175 
	C320.607300,573.485474 259.246582,539.178162 251.583710,482.312653 
	C246.492691,444.532379 264.415039,409.856445 298.157379,392.153870 
	C305.238556,388.438782 312.295410,384.676544 319.331024,380.875946 
	C320.898315,380.029266 322.762482,379.466187 323.552063,377.503815 
	C323.053680,374.856567 320.604004,374.562927 318.742493,373.734772 
	C310.075989,369.879242 300.917328,367.073303 292.732880,362.201294 
	C265.034821,345.713318 249.608322,321.485474 248.744476,289.083923 
	C247.778824,252.863251 263.960632,225.927872 295.744232,208.873672 
	C344.626495,182.644852 393.776489,156.915024 442.809998,130.968002 
	C459.006226,122.397453 475.145844,113.718643 491.393646,105.247215 
	C540.845703,79.463486 600.404541,104.197754 616.078308,157.579208 
	C627.663696,197.036850 611.199036,238.663147 573.462219,259.278412 
	C566.007141,263.351074 558.438843,267.216095 550.943420,271.215637 
	C548.620605,272.455109 546.166016,273.572052 544.744568,276.047577 
	C545.440125,278.704865 547.924255,278.815765 549.782837,279.640839 
	C561.484985,284.835571 573.784424,288.803894 584.214233,296.586395 
	C604.654480,311.838318 616.965088,332.048401 619.241760,357.462219 
	C622.824646,397.457611 605.827209,426.830750 570.735779,445.576660 
	C519.016968,473.204865 467.063660,500.393982 414.894958,527.960571 
M498.739594,326.585114 
	C498.194000,323.842316 495.720398,323.194305 493.729736,322.136688 
	C460.951721,304.722076 428.159576,287.333984 395.351135,269.976685 
	C389.034271,266.634705 388.330780,267.074402 388.329895,274.022949 
	C388.325348,308.991882 388.331329,343.960815 388.347473,378.929749 
	C388.350647,385.790375 389.463226,386.480560 395.394684,383.345154 
	C428.063202,366.076263 460.731598,348.807068 493.381989,331.503937 
	C495.390228,330.439667 497.792908,329.771088 498.739594,326.585114 
z"/>
</svg>